<svg xmlns="http://www.w3.org/2000/svg" viewBox="0 0 400 400">
  <defs>
    <linearGradient id="grad1" x1="0%" y1="0%" x2="100%" y2="100%">
      <stop offset="0%" style="stop-color:#667eea;stop-opacity:1" />
      <stop offset="100%" style="stop-color:#764ba2;stop-opacity:1" />
    </linearGradient>
  </defs>

  <!-- Background -->
  <rect width="400" height="400" fill="url(#grad1)"/>

  <!-- School building -->
  <rect x="150" y="150" width="100" height="80" fill="#fff" opacity="0.9"/>
  <polygon points="100,150 200,100 300,150" fill="#fff" opacity="0.9"/>

  <!-- Windows -->
  <rect x="165" y="165" width="15" height="15" fill="#667eea"/>
  <rect x="185" y="165" width="15" height="15" fill="#667eea"/>
  <rect x="205" y="165" width="15" height="15" fill="#667eea"/>
  <rect x="225" y="165" width="15" height="15" fill="#667eea"/>

  <!-- Door -->
  <rect x="185" y="200" width="20" height="30" fill="#8B4513"/>

  <!-- Students (simple circles) -->
  <circle cx="80" cy="280" r="15" fill="#ff6b9d"/>
  <circle cx="120" cy="285" r="12" fill="#4ecdc4"/>
  <circle cx="280" cy="285" r="12" fill="#45b7d1"/>
  <circle cx="320" cy="280" r="15" fill="#f9ca24"/>

  <!-- Books -->
  <rect x="60" y="250" width="8" height="12" fill="#e74c3c"/>
  <rect x="70" y="250" width="8" height="12" fill="#3498db"/>
  <rect x="80" y="250" width="8" height="12" fill="#2ecc71"/>

  <!-- Graduation cap -->
  <rect x="250" y="120" width="30" height="8" fill="#2c3e50"/>
  <polygon points="265,110 280,120 265,125" fill="#e74c3c"/>

  <!-- Decorative elements -->
  <circle cx="50" cy="100" r="20" fill="#fff" opacity="0.3"/>
  <circle cx="350" cy="80" r="25" fill="#fff" opacity="0.3"/>
  <circle cx="30" cy="300" r="15" fill="#fff" opacity="0.3"/>
  <circle cx="370" cy="320" r="18" fill="#fff" opacity="0.3"/>
</svg>